<svg xmlns="http://www.w3.org/2000/svg" viewBox="0 0 1134.97 646.11"><defs><style>.cls-1{isolation:isolate;}.cls-2{fill:#4553a4;}.cls-3{fill:#293694;}.cls-4{fill:#f36d29;}.cls-5{fill:#e16928;}.cls-6{fill:#edeff0;}.cls-7,.cls-9{fill:#676767;}.cls-7{opacity:0.18;mix-blend-mode:multiply;}.cls-8{fill:#333;}.cls-10{fill:#4e4e4e;}.cls-11{fill:#ccc;}.cls-12{fill:#b3b3b3;}.cls-13{fill:#989898;}</style></defs><g class="cls-1"><g id="Layer_2" data-name="Layer 2"><g id="Layer_1-2" data-name="Layer 1"><circle class="cls-2" cx="552.71" cy="294.84" r="294.84"/><circle class="cls-2" cx="215.88" cy="279.52" r="189.45"/><circle class="cls-2" cx="854" cy="371.46" r="189.45" transform="translate(-12.53 712.67) rotate(-45)"/><circle class="cls-2" cx="949.32" cy="203.43" r="52.1"/><circle class="cls-2" cx="282.85" cy="51.47" r="34.1"/><polygon class="cls-3" points="164.48 598.02 159.88 582.79 158.19 577.24 134.1 497.56 121.2 454.93 101.65 390.25 101.3 390.25 77.05 390.25 75.92 390.25 63.88 432.64 63.88 432.64 54.27 466.47 54.27 466.47 44.67 500.28 44.67 500.28 35.9 531.15 16.91 598.02 0 598.02 0 623.4 180.51 623.4 180.51 598.02 164.48 598.02"/><rect class="cls-3" x="0.36" y="607.2" width="1134.61" height="38.9"/><polygon class="cls-4" points="84.87 599.6 162.29 327.01 194.54 327.01 276.9 599.33 84.87 599.6"/><rect class="cls-5" x="65.77" y="591.14" width="229.47" height="32.26"/><polygon class="cls-6" points="219.41 409.23 146.98 380.9 134.77 423.91 235.8 463.43 219.41 409.23"/><polygon class="cls-6" points="122.56 466.89 110.34 509.9 268.57 571.78 252.18 517.59 122.56 466.89"/><polygon class="cls-7" points="269.01 571.78 266.88 564.72 236.24 463.43 219.85 409.23 194.99 327.01 163.72 327.01 184.39 395.36 188.59 409.23 188.59 409.23 200.78 449.56 204.98 463.43 217.16 503.72 233.55 557.91 235.61 564.72 237.75 571.78 243.6 591.14 264.42 591.14 274.87 591.14 269.01 571.78"/><polygon class="cls-8" points="796.1 260.8 863.75 623.91 827.46 623.91 762.39 260.79 796.1 260.8"/><polygon class="cls-9" points="780.11 260.8 847.76 623.91 811.47 623.91 746.4 260.79 780.11 260.8"/><polygon class="cls-8" points="419.24 260.8 486.88 623.91 450.59 623.91 385.53 260.79 419.24 260.8"/><polygon class="cls-9" points="403.25 260.8 470.89 623.91 434.6 623.91 369.54 260.79 403.25 260.8"/><polygon class="cls-10" points="332.3 260.8 264.91 623.91 301.2 623.91 365.93 259.9 332.3 260.8"/><polygon class="cls-11" points="737.73 457.23 358.11 457.23 346.02 445.53 725.64 260.8 737.73 272.5 737.73 457.23"/><polygon class="cls-6" points="346.02 445.53 391.51 445.53 346.02 390.23 346.02 445.53"/><polygon class="cls-6" points="500.86 260.8 652.82 445.53 725.64 445.53 725.64 427.35 588.64 260.8 500.86 260.8"/><polygon class="cls-6" points="346.02 260.8 346.02 283.27 479.5 445.53 564.83 445.53 412.87 260.8 346.02 260.8"/><polygon class="cls-6" points="725.64 260.8 676.63 260.8 725.64 320.39 725.64 260.8"/><polygon class="cls-4" points="346.02 390.23 391.51 445.53 479.5 445.53 346.02 283.27 346.02 390.23"/><polygon class="cls-4" points="412.87 260.8 564.83 445.53 652.82 445.53 500.86 260.8 412.87 260.8"/><polygon class="cls-4" points="676.63 260.8 588.64 260.8 725.64 427.35 725.64 320.39 676.63 260.8"/><polygon class="cls-12" points="737.73 457.23 725.64 445.53 346.02 445.53 357.91 457.42 737.73 457.23"/><polygon class="cls-10" points="742.14 260.8 674.75 623.91 711.04 623.91 776.45 260.8 742.14 260.8"/><rect class="cls-10" x="290.61" y="526.07" width="408.88" height="30.24"/><rect class="cls-13" x="285.68" y="511.94" width="408.88" height="30.24"/><polygon class="cls-13" points="312.36 260.8 244.97 623.91 281.26 623.91 345.99 259.9 312.36 260.8"/><polygon class="cls-13" points="725.64 260.8 658.25 623.91 694.54 623.91 758.97 260.8 725.64 260.8"/><polygon class="cls-3" points="1118.94 602.18 1114.34 586.95 1112.66 581.39 1088.56 501.71 1075.67 459.08 1056.11 394.41 1055.76 394.41 1031.51 394.41 1030.38 394.41 1018.34 436.8 1018.34 436.8 1008.73 470.63 1008.73 470.63 999.13 504.44 999.13 504.44 990.36 535.3 971.37 602.18 954.46 602.18 954.46 627.55 1134.97 627.55 1134.97 602.18 1118.94 602.18"/><polygon class="cls-4" points="810.09 599.6 887.51 327.01 919.77 327.01 1002.12 599.33 810.09 599.6"/><rect class="cls-5" x="791" y="591.14" width="229.47" height="32.26"/><polygon class="cls-6" points="944.63 409.23 872.2 380.9 859.99 423.91 961.02 463.43 944.63 409.23"/><polygon class="cls-6" points="847.78 466.89 835.57 509.9 993.79 571.78 977.4 517.59 847.78 466.89"/><polygon class="cls-7" points="994.24 571.78 992.1 564.72 961.47 463.43 945.08 409.23 920.21 327.01 888.95 327.01 909.62 395.36 913.81 409.23 913.81 409.23 926.01 449.56 930.2 463.43 942.39 503.72 958.77 557.91 960.83 564.72 962.97 571.78 968.82 591.14 989.64 591.14 1000.09 591.14 994.24 571.78"/></g></g></g></svg>